<svg viewBox="0 0 200 120" xmlns="http://www.w3.org/2000/svg"><path fill-rule="evenodd" clip-rule="evenodd" fill="#FFF" d="M99.839 109.114c-38.166 0-64.042 5.601-68.5 5.601-4.263 0-8.023-2.866-9.247-6.512-1.223-3.645-11.748-39.938-13.351-45.834-1.567-5.761 1.701-11.487 9.687-11.487h45.574v-5.593c-6.149-.9-9.21-4.191-9.21-7.786 0-2.013.873-2.766 1.461-8.235.274-2.532-1.079-2.2-1.887-2.283-2.347-.241-3.587-1.151-4.973-3.578-.727-1.268-1.682-4.508-1.682-5.235 0-4.599 3.856-6.377 10.414-6.377 4.869 0 9.078 1.375 10.721 4.383h10.74c0-9.17 9.186-10.396 20.253-10.396 11.065 0 20.249 1.226 20.249 10.396h10.742c1.642-3.008 5.852-4.383 10.72-4.383 6.557 0 10.412 1.778 10.412 6.377 0 .728-.954 3.967-1.68 5.235-1.39 2.427-2.629 3.337-4.976 3.578-.806.083-2.161-.25-1.887 2.283.59 5.469 1.464 6.222 1.464 8.235 0 3.594-3.062 6.886-9.212 7.786v5.593h45.573c7.987 0 11.253 5.726 9.687 11.487-1.602 5.896-12.124 42.189-13.351 45.834-1.224 3.646-4.983 6.512-9.244 6.512-4.459 0-30.335-5.601-68.497-5.601z"/><path fill-rule="evenodd" clip-rule="evenodd" fill="#fff" d="M173.708 19.819h3.979c2.238 0 2.974 1.381 2.974 2.363 0 1.46-1.037 2.5-2.563 2.592v.045c.771.268 1.348 1.042 2.093 2.245l1.096 1.747h-1.775l-.796-1.401c-1.133-2.011-1.573-2.411-2.682-2.411h-.856v3.812h-1.468v-8.992zm3.556 3.929c1.098 0 1.855-.429 1.855-1.365 0-.813-.652-1.334-1.608-1.334h-2.335v2.699h2.088zm-.184-6.077a6.974 6.974 0 0 0-6.983 6.975 6.982 6.982 0 0 0 6.983 6.988c3.875 0 7.008-3.124 7.008-6.988 0-3.859-3.133-6.975-7.008-6.975zm0 15.363c-4.629 0-8.343-3.758-8.343-8.388s3.714-8.359 8.343-8.359c4.633 0 8.388 3.729 8.388 8.359s-3.755 8.388-8.388 8.388z"/><path fill-rule="evenodd" clip-rule="evenodd" fill="#003671" d="M64.002 40.811c-1.127.042-3.647-1.298-4.342-1.992-.465-.463-.655-1.163-.368-2.087 1.069-3.45 1.692-8.286 1.367-12.092-.178-2.035-1.278-2.257-3.518-2.257-.612 0-1.503.133-2.245.134-.791.003-1.169-.267-1.408-.712-.423-.782-1.161-2.814-1.394-3.752-.107-.435.135-.934.784-1.142.715-.228 3.097-.623 5.368-.623 2.111 0 4.44.372 5.682 1.148.763.476 1.114 1.048 1.114 2.067V39.38c.001.561-.438 1.407-1.04 1.431zm71.4 0c1.126.042 3.646-1.298 4.342-1.992.466-.463.657-1.163.367-2.087-1.067-3.45-1.689-8.286-1.364-12.092.174-2.035 1.276-2.257 3.515-2.257.612 0 1.504.133 2.246.134.788.003 1.169-.267 1.405-.712.426-.782 1.163-2.814 1.396-3.752.108-.435-.134-.934-.783-1.142-.716-.228-3.098-.623-5.369-.623-2.107 0-4.439.372-5.681 1.148-.763.476-1.118 1.048-1.118 2.067l.003 19.877c-.001.561.44 1.407 1.041 1.431zm-5.497 6.202c0-.815-.795-1.474-1.774-1.474H71.305c-.979 0-1.773.659-1.773 1.474v2.867c0 .813.794 1.476 1.773 1.476h56.826c.979 0 1.774-.662 1.774-1.476v-2.867zm0-13.628c0-.815-.795-1.476-1.774-1.476H71.305c-.979 0-1.773.66-1.773 1.476v6.385c0 .816.794 1.475 1.773 1.475h56.826c.979 0 1.774-.659 1.774-1.475v-6.385zm-.014-10.113v2.865c0 .816-.796 1.477-1.772 1.477H71.29c-.979 0-1.774-.661-1.774-1.477v-2.865c0-.813.796-1.476 1.774-1.476h13.712v-6.012c0-3.315 2.887-3.6 4.912-4.043 1.714-.377 5.364-.609 9.806-.628 4.439-.017 8.088.25 9.803.628 2.024.443 4.913.728 4.913 4.043v6.012h13.684c.975.001 1.771.663 1.771 1.476zm-40.095-1.475h19.844v-3.251c0-.889-.75-1.598-1.571-1.719-2.447-.357-4.719-.542-8.35-.542-3.631 0-5.905.184-8.352.542-.823.121-1.571.83-1.571 1.719v3.251z"/><path fill-rule="evenodd" clip-rule="evenodd" fill="#E40520" d="M181.209 56.502l-81.505.001-81.506-.001c-2.716-.019-4.847 2.377-4.048 5.45l12.825 43.858c.79 2.602 2.623 3.538 4.899 3.23 22.142-3.316 44.737-5.014 67.724-5.014h.212c22.985 0 45.58 1.697 67.722 5.014 2.276.308 4.109-.629 4.9-3.23l12.827-43.858c.796-3.073-1.335-5.469-4.05-5.45z"/><path fill-rule="evenodd" clip-rule="evenodd" fill="#FFF" d="M75.23 64.505c-3.376 0-4.546.417-4.546.417v32.075s1.29.403 4.546.403c3.256 0 4.672-.403 4.672-.403V64.922s-1.134-.417-4.672-.417zm66.666 7.503c0-.479.353-.823.812-.823l19.157.002v-6.255s-6.729-.479-14.502-.479c-8.05 0-14.688.458-14.688.458v32.071s7.308.48 14.688.48c7.438 0 14.502-.466 14.502-.466v-6.28h-19.147a.796.796 0 0 1-.815-.813V84.61c0-.49.337-.808.815-.808h14.016v-6.291h-14.025a.806.806 0 0 1-.812-.82c.005-.004-.001-4.683-.001-4.683zm-22.566-7.5c-3.316 0-4.606.414-4.606.414v19.495c0 .863-.866 1.269-1.482.393L99.427 64.922s-1.322-.423-5.002-.423c-3.679 0-5.843.423-5.843.423v32.075s1.179.403 4.584.403c3.34 0 4.634-.403 4.634-.403V77.663c0-.927.99-1.118 1.418-.458l13.933 19.792s1.531.413 5.379.413c3.479 0 5.424-.413 5.424-.413V64.922c-.001 0-1.505-.414-4.624-.414zm-54.176.414s-7.172-.469-15.922-.469c-8.321 0-16.583.469-16.583.469v6.577h11.114c.458 0 .816.36.816.831v24.675s1.496.385 4.653.385c3.159 0 4.572-.385 4.572-.385V72.33c0-.471.37-.831.829-.831h10.521v-6.577z"/></svg>
